<?xml version="1.0" encoding="utf-8"?>
<!-- Generator: Adobe Illustrator 19.1.0, SVG Export Plug-In . SVG Version: 6.00 Build 0)  -->
<svg version="1.1"
	 id="Layer_1" sodipodi:docname="Bkktavolsagibusz.svg" inkscape:version="0.91 r13725" xmlns:dc="http://purl.org/dc/elements/1.1/" xmlns:cc="http://creativecommons.org/ns#" xmlns:inkscape="http://www.inkscape.org/namespaces/inkscape" xmlns:sodipodi="http://sodipodi.sourceforge.net/DTD/sodipodi-0.dtd" xmlns:svg="http://www.w3.org/2000/svg" xmlns:rdf="http://www.w3.org/1999/02/22-rdf-syntax-ns#"
	 xmlns="http://www.w3.org/2000/svg" xmlns:xlink="http://www.w3.org/1999/xlink" x="0px" y="0px" viewBox="-157 249.4 295.6 295.6"
	 style="enable-background:new -157 249.4 295.6 295.6;" xml:space="preserve">
<style type="text/css">
	.st0{fill:#F7B908;}
	.st1{fill:#312C27;}
</style>
<sodipodi:namedview  inkscape:current-layer="Layer_1" inkscape:window-maximized="1" inkscape:window-y="-8" inkscape:window-x="-8" fit-margin-bottom="0" fit-margin-right="0" inkscape:window-height="1148" inkscape:pageshadow="2" inkscape:pageopacity="0" inkscape:window-width="1920" id="namedview11" pagecolor="#ffffff" fit-margin-left="0" inkscape:zoom="0.39925564" fit-margin-top="0" showgrid="false" guidetolerance="10" gridtolerance="10" objecttolerance="10" borderopacity="1" inkscape:cy="154.05" inkscape:cx="146.34999" bordercolor="#666666">
	</sodipodi:namedview>
<circle id="circle7" class="st0" cx="-9.2" cy="397.2" r="147.8"/>
<path id="path9" inkscape:connector-curvature="0" class="st1" d="M68.7,330.8c0-5.3-1.6-9.2-4.5-11.7c-2.9-2.5-7.1-3.7-12.4-3.7
	c-10.4,0-20.7,0-31,0c-9.8,0-19.7,0-29.6,0l0,0c-0.2,0-0.4,0-0.5,0c-0.2,0-0.4,0-0.5,0l0,0c-9.8,0-19.7,0-29.6,0
	c-10.4,0-20.7,0-31,0c-5.2,0-9.4,1.2-12.4,3.7c-2.9,2.5-4.5,6.4-4.5,11.7c-0.1,20-0.2,40.2-0.2,60.2s0,40.2,0.1,60.2
	c0,4.1,1,7.5,3,10.1c2,2.6,5,4.4,8.9,5c3,0.5,4.9,1.2,6,2.5c1.1,1.4,1.4,3.2,1.4,6c-0.1,2.8,0.8,4.8,2.4,6.1c1.5,1.4,3.8,2,6.5,2.1
	c2.5,0,5-0.5,6.8-1.6c1.7-1.2,2.8-3.1,2.6-5.9c-0.3-4.4,0.8-6.6,2.8-7.7c2-1.1,4.8-1,7.9-1c9.7,0.1,19.4,0.2,29.2,0.2
	c0.2,0,0.5,0,0.6,0s0.5,0,0.6,0c9.7,0,19.4-0.1,29.2-0.2c3.2,0,6-0.1,7.9,1c2,1.1,3.1,3.2,2.8,7.7c-0.2,2.8,0.9,4.7,2.6,5.9
	s4.2,1.7,6.8,1.6c2.6,0,4.9-0.7,6.5-2.1c1.5-1.4,2.4-3.3,2.4-6.1c-0.1-2.8,0.3-4.7,1.4-6c1.1-1.4,3-2.1,6-2.5c4-0.5,6.9-2.3,8.9-5
	c2-2.6,3-6.1,3-10.1c0-20,0.1-40.2,0.1-60.2C68.9,371,68.9,350.8,68.7,330.8L68.7,330.8z M-70.3,328.8c1.9-0.9,4.5-0.9,7.1-0.9
	c17.8,0,35.6,0,53.4,0l0,0c0.2,0,0.3,0,0.5,0c0,0,0,0,0.1,0s0,0,0.1,0c0.2,0,0.3,0,0.5,0l0,0c17.8,0,35.6,0,53.4,0
	c2.6,0,5.2,0,7.1,0.9c1.9,0.9,3.2,2.8,3,6.4c-0.1,3.6-1.5,5.3-3.5,6.2c-2,0.8-4.6,0.8-7.1,0.8c-8.7,0-17.3,0-26.1,0
	c-8.7,0-17.3,0-26.1,0c-0.5,0-0.8,0-1.3,0s-0.8,0-1.3,0c-8.7,0-17.3,0-26.1,0c-8.7,0-17.3,0-26.1,0c-2.5,0-5.1,0.1-7.1-0.8
	c-2-0.8-3.4-2.6-3.5-6.2C-73.4,331.6-72.2,329.7-70.3,328.8L-70.3,328.8z M-38.6,457.3c-1.5-0.1-3.3,0-5.1,0.1c0,0-0.1,0-0.3,0
	c0,0-0.1,0-0.2,0s-0.2,0-0.3,0c-3.4,0-19.7-0.5-21.8-0.5c-3.2,0-5-1.1-6-2.8c-1-1.7-1.2-4-1.1-6.5c0-2.4,0.5-4.4,1.5-5.8
	c1.1-1.4,2.9-2.2,5.6-2.2c2.1,0,12.2-0.1,18.7-0.1c0.7-0.1,1.4-0.1,2.1,0c2.2,0,4.6,1,4.6,1c1.5,0-1.4-1-3.6-1
	c3.1,0.4,5.4,1.6,7,3.4c2.2,2.3,3.2,5.7,3.3,9.3C-33.9,456.7-36,457.5-38.6,457.3L-38.6,457.3z M-8.9,431.7L-8.9,431.7
	C-8.9,431.7-9,431.7-8.9,431.7c-0.1,0-0.2,0-0.3,0c-0.1,0-0.2,0-0.3,0c0,0,0,0-0.1,0l0,0c-17,0-33.9,0-50.8,0c-4.3,0-7.6-1-9.7-3.2
	c-2.2-2.1-3.2-5.3-3.2-9.7c0-8.8,0.1-17.8,0.1-26.6s0-17.8-0.1-26.6c-0.1-4.6,0.9-8,3.1-10.3s5.5-3.2,10.3-3.2
	c8.5,0.2,16.9,0.2,25.4,0.2s16.9-0.1,25.4-0.1s16.9,0.1,25.4,0.1s16.9,0,25.4-0.2c4.8-0.1,8.1,1,10.3,3.2c2.2,2.3,3.1,5.6,3.1,10.3
	c-0.1,8.8-0.1,17.8-0.1,26.6s0,17.8,0.1,26.6c0,4.3-1.1,7.6-3.2,9.7c-2.2,2.1-5.4,3.2-9.7,3.2C24.9,431.7,8,431.7-8.9,431.7z
	 M53.7,454c-1,1.7-2.7,2.8-6,2.8c-2.3,0-4.5,0-6.9,0c-2.3,0-4.5,0-6.9,0c-1,0-2.1,0.2-3.2,0.2c-0.8,0-1.4,0.1-2,0.1
	c0.1,0.2-1.5,0.2-1.4,0.1c-2.4,0.3-5.3-0.1-7.5,0c-2.6,0.2-4.6-0.6-4.5-5.1c0.1-3.5,1.1-6.9,3.3-9.3c2.2-2.3,5.2-3.1,10.2-3.4
	c3.1-0.3,13.9,0,17-0.1c3.1,0-1.5,0.2,1.6,0.2c2.7,0,4.5,0.8,5.6,2.2c1.1,1.4,1.5,3.4,1.5,5.8C54.9,450,54.7,452.4,53.7,454
	L53.7,454z"/>
</svg>
